HIERARCHY
ROOT Hips
{
	OFFSET -0.001795 -0.223333 0.028219
	CHANNELS 6 Xposition Yposition Zposition Zrotation Yrotation Xrotation 
	JOINT LeftUpLeg
	{
		OFFSET 0.069520 -0.091406 -0.006815
		CHANNELS 3 Zrotation Yrotation Xrotation
		JOINT LeftLeg
		{
			OFFSET 0.034277 -0.375199 -0.004496
			CHANNELS 3 Zrotation Yrotation Xrotation
			JOINT LeftFoot
			{
				OFFSET -0.013596 -0.397961 -0.043693
				CHANNELS 3 Zrotation Yrotation Xrotation
				JOINT LeftToe
				{
					OFFSET 0.026358 -0.055791 0.119288
					CHANNELS 3 Zrotation Yrotation Xrotation
					End Site
					{
						OFFSET 0.000000 0.000000 0.000000
					}
				}
			}
		}
	}
	JOINT RightUpLeg
	{
		OFFSET -0.067670 -0.090522 -0.004320
		CHANNELS 3 Zrotation Yrotation Xrotation
		JOINT RightLeg
		{
			OFFSET -0.038290 -0.382569 -0.008850
			CHANNELS 3 Zrotation Yrotation Xrotation
			JOINT RightFoot
			{
				OFFSET 0.015774 -0.398415 -0.042312
				CHANNELS 3 Zrotation Yrotation Xrotation
				JOINT RightToe
				{
					OFFSET -0.025372 -0.048144 0.123348
					CHANNELS 3 Zrotation Yrotation Xrotation
					End Site
					{
						OFFSET 0.000000 0.000000 0.000000
					}
				}
			}
		}
	}
	JOINT Spine
	{
		OFFSET -0.002533 0.108963 -0.026696
		CHANNELS 3 Zrotation Yrotation Xrotation
		JOINT Spine1
		{
			OFFSET 0.005487 0.135180 0.001092
			CHANNELS 3 Zrotation Yrotation Xrotation
			JOINT Spine2
			{
				OFFSET 0.001457 0.052922 0.025425
				CHANNELS 3 Zrotation Yrotation Xrotation
				JOINT Neck
				{
					OFFSET -0.002778 0.213870 -0.042857
					CHANNELS 3 Zrotation Yrotation Xrotation
					JOINT Head
					{
						OFFSET 0.005152 0.064970 0.051349
						CHANNELS 3 Zrotation Yrotation Xrotation
						End Site
						{
							OFFSET 0.000000 0.000000 0.000000
						}
					}
				}
				JOINT LeftShoulder
				{
					OFFSET 0.078845 0.121749 -0.034090
					CHANNELS 3 Zrotation Yrotation Xrotation
					JOINT LeftArm
					{
						OFFSET 0.090977 0.030469 -0.008868
						CHANNELS 3 Zrotation Yrotation Xrotation
						JOINT LeftForeArm
						{
							OFFSET 0.259612 -0.012772 -0.027456
							CHANNELS 3 Zrotation Yrotation Xrotation
							JOINT LeftHand
							{
								OFFSET 0.249234 0.008986 -0.001171
								CHANNELS 3 Zrotation Yrotation Xrotation
								End Site
								{
									OFFSET 0.000000 0.000000 0.000000
								}
							}
						}
					}
				}
				JOINT RightShoulder
				{
					OFFSET -0.081759 0.118833 -0.038615
					CHANNELS 3 Zrotation Yrotation Xrotation
					JOINT RightArm
					{
						OFFSET -0.096012 0.032551 -0.009143
						CHANNELS 3 Zrotation Yrotation Xrotation
						JOINT RightForeArm
						{
							OFFSET -0.253742 -0.013329 -0.021401
							CHANNELS 3 Zrotation Yrotation Xrotation
							JOINT RightHand
							{
								OFFSET -0.255298 0.007772 -0.005559
								CHANNELS 3 Zrotation Yrotation Xrotation
								End Site
								{
									OFFSET 0.000000 0.000000 0.000000
								}
							}
						}
					}
				}
			}
		}
	}
}
MOTION
Frames: 5
Frame Time: 0.050000
0.000000 0.940827 0.000000 5.776276 12.320202 26.238464 6.221320 -2.177809 -26.013146 -1.684968 0.080817 1.529324 -8.233008 6.990013 47.474188 0.000000 0.000000 0.000000 -12.365711 -1.712149 -38.284832 0.337265 0.111770 15.393395 -0.633319 -4.582527 13.361812 0.000000 0.000000 0.000000 11.151949 -6.891325 30.320570 3.103585 -0.788987 -8.010351 3.914128 3.680396 15.000047 7.891167 -2.584922 -17.546275 0.000000 0.000000 0.000000 -9.741658 -11.424843 3.235948 -58.022214 -22.168543 2.729856 -33.841718 -62.918990 22.946507 0.000000 0.000000 0.000000 -3.196143 12.663647 4.790490 39.166574 50.558372 13.334978 -31.414401 30.376141 -5.380069 0.000000 0.000000 0.000000 
-0.001687 0.942621 -0.000191 4.972322 11.938242 26.581714 7.228391 -1.997609 -25.618864 -0.504546 0.055518 -0.673923 -12.578634 3.937341 51.348256 0.000000 0.000000 0.000000 -11.506573 -1.395913 -38.760498 0.433184 0.116473 13.699819 -0.611809 -5.252528 16.600777 0.000000 0.000000 0.000000 12.230464 -7.080746 29.437745 3.200886 -0.891376 -7.253947 3.801768 3.175605 15.250071 5.715214 -1.836193 -14.532130 0.000000 0.000000 0.000000 -10.681403 -8.892920 2.091766 -55.260258 -20.411567 1.764337 -39.476651 -62.500419 26.569861 0.000000 0.000000 0.000000 -3.049826 14.160612 5.404588 39.580809 51.208219 13.514174 -34.738362 31.969904 -6.450898 0.000000 0.000000 0.000000 
-0.003000 0.940395 -0.000658 4.672423 11.063175 26.577706 7.059614 -2.020303 -26.350882 -0.905187 0.033809 1.044173 -7.925283 7.432059 49.130841 0.000000 0.000000 0.000000 -10.903799 -1.147023 -39.817323 -0.236384 0.309509 15.302215 0.032473 -3.956763 15.118732 0.000000 0.000000 0.000000 11.493298 -6.747300 29.723372 2.623198 -0.774739 -5.944796 4.665996 2.804929 13.727778 6.317254 -3.231526 -9.011331 0.000000 0.000000 0.000000 -11.007090 -8.049151 1.814952 -55.249225 -20.575800 2.042368 -41.349154 -63.317208 28.496820 0.000000 0.000000 0.000000 1.515519 13.984655 6.041845 34.352487 50.786148 10.495194 -31.094302 35.419505 -6.359428 0.000000 0.000000 0.000000 
-0.004172 0.942072 -0.001330 4.744646 10.840334 26.602097 6.312317 -2.121416 -26.571417 0.759451 -0.145054 1.716081 -9.885053 5.455319 48.409728 0.000000 0.000000 0.000000 -10.956053 -1.158671 -40.257173 -0.598716 0.412754 15.907356 0.883853 -2.563619 15.576016 0.000000 0.000000 0.000000 11.399120 -6.831266 30.361272 1.994301 -0.585296 -5.231760 4.613688 2.109998 13.121597 4.261253 -2.066599 -7.772817 0.000000 0.000000 0.000000 -8.215399 -6.886892 1.677773 -56.242507 -20.188595 1.907214 -44.477149 -65.046786 31.875134 0.000000 0.000000 0.000000 1.020582 13.920130 5.869295 36.050578 49.709494 10.780287 -33.242798 39.547750 -7.976943 0.000000 0.000000 0.000000 
-0.005035 0.940882 -0.002318 5.402595 11.503532 26.550086 5.042576 -2.346708 -26.651468 0.912225 -0.175136 2.024616 -6.515464 8.365729 46.810880 0.000000 0.000000 0.000000 -11.371825 -1.424450 -39.986363 -0.926821 0.473750 16.015227 0.632022 -2.806611 15.206307 0.000000 0.000000 0.000000 11.363167 -6.911227 30.469137 2.127771 -0.610784 -5.547242 4.249252 1.527712 13.296163 3.716038 -1.904667 -6.336422 0.000000 0.000000 0.000000 -8.753303 -7.545100 1.971316 -53.211706 -21.023560 2.087061 -47.045183 -65.924724 34.302454 0.000000 0.000000 0.000000 1.364848 14.191611 6.016127 34.888015 48.240964 9.672345 -31.990268 42.089762 -8.196905 0.000000 0.000000 0.000000 
